<mxfile host="app.diagrams.net" agent="Mozilla/5.0 (Windows NT 10.0; Win64; x64) AppleWebKit/537.36 (KHTML, like Gecko) Chrome/135.0.0.0 Safari/537.36" version="26.2.12">
  <diagram name="Page-1" id="HB7E5a8Te02KWCHFkE5X">
    <mxGraphModel dx="1680" dy="1984" grid="1" gridSize="10" guides="1" tooltips="1" connect="1" arrows="1" fold="1" page="1" pageScale="1" pageWidth="850" pageHeight="1100" math="0" shadow="0">
      <root>
        <mxCell id="0" />
        <mxCell id="1" parent="0" />
        <mxCell id="wFP3KYfhAiqptKN9aw-K-44" value="" style="rounded=0;whiteSpace=wrap;html=1;dashed=1;" parent="1" vertex="1">
          <mxGeometry x="820" y="-390" width="580" height="320" as="geometry" />
        </mxCell>
        <mxCell id="wFP3KYfhAiqptKN9aw-K-14" value="" style="rounded=0;whiteSpace=wrap;html=1;dashed=1;" parent="1" vertex="1">
          <mxGeometry x="311" y="-640" width="90" height="30" as="geometry" />
        </mxCell>
        <mxCell id="wFP3KYfhAiqptKN9aw-K-16" value="3&lt;span style=&quot;white-space: pre;&quot;&gt;&#x9;&lt;/span&gt;2&lt;span style=&quot;white-space: pre;&quot;&gt;&#x9;&lt;/span&gt;8&lt;span style=&quot;white-space: pre;&quot;&gt;&#x9;&lt;/span&gt;9&lt;span style=&quot;white-space: pre;&quot;&gt;&#x9;&lt;/span&gt;10" style="text;html=1;align=center;verticalAlign=middle;whiteSpace=wrap;rounded=0;" parent="1" vertex="1">
          <mxGeometry x="240" y="-640" width="300" height="30" as="geometry" />
        </mxCell>
        <mxCell id="wFP3KYfhAiqptKN9aw-K-10" value="" style="rounded=0;whiteSpace=wrap;html=1;dashed=1;" parent="1" vertex="1">
          <mxGeometry x="345" y="-690" width="90" height="30" as="geometry" />
        </mxCell>
        <mxCell id="wFP3KYfhAiqptKN9aw-K-12" value="3&lt;span style=&quot;white-space: pre;&quot;&gt;&#x9;&lt;/span&gt;8&lt;span style=&quot;white-space: pre;&quot;&gt;&#x9;&lt;/span&gt;2&lt;span style=&quot;white-space: pre;&quot;&gt;&#x9;&lt;/span&gt;9&lt;span style=&quot;white-space: pre;&quot;&gt;&#x9;&lt;/span&gt;10" style="text;html=1;align=center;verticalAlign=middle;whiteSpace=wrap;rounded=0;" parent="1" vertex="1">
          <mxGeometry x="240" y="-690" width="300" height="30" as="geometry" />
        </mxCell>
        <mxCell id="wFP3KYfhAiqptKN9aw-K-6" value="" style="rounded=0;whiteSpace=wrap;html=1;dashed=1;" parent="1" vertex="1">
          <mxGeometry x="369" y="-740" width="90" height="30" as="geometry" />
        </mxCell>
        <mxCell id="wFP3KYfhAiqptKN9aw-K-8" value="3&lt;span style=&quot;white-space: pre;&quot;&gt;&#x9;&lt;/span&gt;8&lt;span style=&quot;white-space: pre;&quot;&gt;&#x9;&lt;/span&gt;10&lt;span style=&quot;white-space: pre;&quot;&gt;&#x9;&lt;/span&gt;9&lt;span style=&quot;white-space: pre;&quot;&gt;&#x9;&lt;/span&gt;2" style="text;html=1;align=center;verticalAlign=middle;whiteSpace=wrap;rounded=0;" parent="1" vertex="1">
          <mxGeometry x="240" y="-740" width="300" height="30" as="geometry" />
        </mxCell>
        <mxCell id="wFP3KYfhAiqptKN9aw-K-4" value="" style="rounded=0;whiteSpace=wrap;html=1;dashed=1;" parent="1" vertex="1">
          <mxGeometry x="320" y="-790" width="90" height="30" as="geometry" />
        </mxCell>
        <mxCell id="dSo5o6ENgOn3KIxEwk0V-3" value="" style="endArrow=none;html=1;rounded=0;exitX=1.001;exitY=0.191;exitDx=0;exitDy=0;exitPerimeter=0;entryX=0.001;entryY=0.881;entryDx=0;entryDy=0;entryPerimeter=0;" parent="1" source="3K-KdEBF6QyR_X1sGFoG-324" target="3K-KdEBF6QyR_X1sGFoG-241" edge="1">
          <mxGeometry width="50" height="50" relative="1" as="geometry">
            <mxPoint x="1210" y="620" as="sourcePoint" />
            <mxPoint x="1260" y="570" as="targetPoint" />
            <Array as="points">
              <mxPoint x="1200" y="620" />
              <mxPoint x="1200" y="560" />
            </Array>
          </mxGeometry>
        </mxCell>
        <mxCell id="dSo5o6ENgOn3KIxEwk0V-1" value="" style="endArrow=none;html=1;rounded=0;exitX=1.004;exitY=0.643;exitDx=0;exitDy=0;exitPerimeter=0;entryX=0.009;entryY=0.17;entryDx=0;entryDy=0;entryPerimeter=0;" parent="1" source="3K-KdEBF6QyR_X1sGFoG-310" target="3K-KdEBF6QyR_X1sGFoG-241" edge="1">
          <mxGeometry width="50" height="50" relative="1" as="geometry">
            <mxPoint x="1180" y="460" as="sourcePoint" />
            <mxPoint x="1230" y="410" as="targetPoint" />
            <Array as="points">
              <mxPoint x="1180" y="360" />
              <mxPoint x="1200" y="440" />
            </Array>
          </mxGeometry>
        </mxCell>
        <mxCell id="3K-KdEBF6QyR_X1sGFoG-4" value="" style="endArrow=none;html=1;rounded=0;" parent="1" edge="1">
          <mxGeometry width="50" height="50" relative="1" as="geometry">
            <mxPoint x="270" y="320" as="sourcePoint" />
            <mxPoint x="350" y="320" as="targetPoint" />
          </mxGeometry>
        </mxCell>
        <mxCell id="3K-KdEBF6QyR_X1sGFoG-10" value="" style="endArrow=none;html=1;rounded=0;" parent="1" edge="1">
          <mxGeometry width="50" height="50" relative="1" as="geometry">
            <mxPoint x="270" y="360" as="sourcePoint" />
            <mxPoint x="350" y="360" as="targetPoint" />
          </mxGeometry>
        </mxCell>
        <mxCell id="3K-KdEBF6QyR_X1sGFoG-18" value="" style="endArrow=none;html=1;rounded=0;" parent="1" edge="1">
          <mxGeometry width="50" height="50" relative="1" as="geometry">
            <mxPoint x="270" y="440" as="sourcePoint" />
            <mxPoint x="350" y="440" as="targetPoint" />
          </mxGeometry>
        </mxCell>
        <mxCell id="3K-KdEBF6QyR_X1sGFoG-22" value="S1" style="text;html=1;align=center;verticalAlign=middle;whiteSpace=wrap;rounded=0;" parent="1" vertex="1">
          <mxGeometry x="230" y="290" width="60" height="30" as="geometry" />
        </mxCell>
        <mxCell id="3K-KdEBF6QyR_X1sGFoG-23" value="S2" style="text;html=1;align=center;verticalAlign=middle;whiteSpace=wrap;rounded=0;" parent="1" vertex="1">
          <mxGeometry x="230" y="330" width="60" height="30" as="geometry" />
        </mxCell>
        <mxCell id="3K-KdEBF6QyR_X1sGFoG-24" value="....." style="text;html=1;align=center;verticalAlign=middle;whiteSpace=wrap;rounded=0;rotation=90;" parent="1" vertex="1">
          <mxGeometry x="270" y="390" width="60" height="30" as="geometry" />
        </mxCell>
        <mxCell id="3K-KdEBF6QyR_X1sGFoG-25" value="S5" style="text;html=1;align=center;verticalAlign=middle;whiteSpace=wrap;rounded=0;" parent="1" vertex="1">
          <mxGeometry x="230" y="410" width="60" height="30" as="geometry" />
        </mxCell>
        <mxCell id="3K-KdEBF6QyR_X1sGFoG-59" value="" style="endArrow=none;html=1;rounded=0;" parent="1" edge="1">
          <mxGeometry width="50" height="50" relative="1" as="geometry">
            <mxPoint x="270" y="520" as="sourcePoint" />
            <mxPoint x="350" y="520" as="targetPoint" />
          </mxGeometry>
        </mxCell>
        <mxCell id="3K-KdEBF6QyR_X1sGFoG-63" value="" style="endArrow=none;html=1;rounded=0;" parent="1" edge="1">
          <mxGeometry width="50" height="50" relative="1" as="geometry">
            <mxPoint x="270" y="560" as="sourcePoint" />
            <mxPoint x="350" y="560" as="targetPoint" />
          </mxGeometry>
        </mxCell>
        <mxCell id="3K-KdEBF6QyR_X1sGFoG-67" value="" style="endArrow=none;html=1;rounded=0;" parent="1" edge="1">
          <mxGeometry width="50" height="50" relative="1" as="geometry">
            <mxPoint x="270" y="640" as="sourcePoint" />
            <mxPoint x="350" y="640" as="targetPoint" />
          </mxGeometry>
        </mxCell>
        <mxCell id="3K-KdEBF6QyR_X1sGFoG-71" value="S21" style="text;html=1;align=center;verticalAlign=middle;whiteSpace=wrap;rounded=0;" parent="1" vertex="1">
          <mxGeometry x="230" y="490" width="60" height="30" as="geometry" />
        </mxCell>
        <mxCell id="3K-KdEBF6QyR_X1sGFoG-72" value="S22" style="text;html=1;align=center;verticalAlign=middle;whiteSpace=wrap;rounded=0;" parent="1" vertex="1">
          <mxGeometry x="230" y="530" width="60" height="30" as="geometry" />
        </mxCell>
        <mxCell id="3K-KdEBF6QyR_X1sGFoG-73" value="....." style="text;html=1;align=center;verticalAlign=middle;whiteSpace=wrap;rounded=0;rotation=90;" parent="1" vertex="1">
          <mxGeometry x="270" y="590" width="60" height="30" as="geometry" />
        </mxCell>
        <mxCell id="3K-KdEBF6QyR_X1sGFoG-74" value="S25" style="text;html=1;align=center;verticalAlign=middle;whiteSpace=wrap;rounded=0;" parent="1" vertex="1">
          <mxGeometry x="230" y="610" width="60" height="30" as="geometry" />
        </mxCell>
        <mxCell id="3K-KdEBF6QyR_X1sGFoG-75" value="....." style="text;html=1;align=center;verticalAlign=middle;whiteSpace=wrap;rounded=0;rotation=90;" parent="1" vertex="1">
          <mxGeometry x="270" y="470" width="60" height="30" as="geometry" />
        </mxCell>
        <mxCell id="3K-KdEBF6QyR_X1sGFoG-76" value="SortAscending5 (Row0)" style="rounded=0;whiteSpace=wrap;html=1;" parent="1" vertex="1">
          <mxGeometry x="350" y="300" width="90" height="170" as="geometry" />
        </mxCell>
        <mxCell id="3K-KdEBF6QyR_X1sGFoG-77" value="SortAscending5 (Row4)" style="rounded=0;whiteSpace=wrap;html=1;" parent="1" vertex="1">
          <mxGeometry x="350" y="500" width="90" height="160" as="geometry" />
        </mxCell>
        <mxCell id="3K-KdEBF6QyR_X1sGFoG-78" value="" style="endArrow=none;html=1;rounded=0;entryX=-0.011;entryY=0.108;entryDx=0;entryDy=0;entryPerimeter=0;" parent="1" edge="1">
          <mxGeometry width="50" height="50" relative="1" as="geometry">
            <mxPoint x="440" y="320" as="sourcePoint" />
            <mxPoint x="588.6800000000001" y="318.3599999999999" as="targetPoint" />
          </mxGeometry>
        </mxCell>
        <mxCell id="3K-KdEBF6QyR_X1sGFoG-94" value="" style="endArrow=none;html=1;rounded=0;entryX=-0.006;entryY=0.826;entryDx=0;entryDy=0;entryPerimeter=0;exitX=0.992;exitY=0.119;exitDx=0;exitDy=0;exitPerimeter=0;" parent="1" source="3K-KdEBF6QyR_X1sGFoG-77" target="3K-KdEBF6QyR_X1sGFoG-115" edge="1">
          <mxGeometry width="50" height="50" relative="1" as="geometry">
            <mxPoint x="470" y="520" as="sourcePoint" />
            <mxPoint x="550" y="520" as="targetPoint" />
            <Array as="points">
              <mxPoint x="520" y="520" />
              <mxPoint x="540" y="440" />
              <mxPoint x="590" y="440" />
            </Array>
          </mxGeometry>
        </mxCell>
        <mxCell id="3K-KdEBF6QyR_X1sGFoG-103" value="" style="endArrow=none;html=1;rounded=0;" parent="1" edge="1">
          <mxGeometry width="50" height="50" relative="1" as="geometry">
            <mxPoint x="440" y="560" as="sourcePoint" />
            <mxPoint x="520" y="560" as="targetPoint" />
          </mxGeometry>
        </mxCell>
        <mxCell id="3K-KdEBF6QyR_X1sGFoG-107" value="" style="endArrow=none;html=1;rounded=0;entryX=-0.004;entryY=0.827;entryDx=0;entryDy=0;entryPerimeter=0;" parent="1" edge="1">
          <mxGeometry width="50" height="50" relative="1" as="geometry">
            <mxPoint x="440" y="640" as="sourcePoint" />
            <mxPoint x="589.52" y="640.5899999999997" as="targetPoint" />
          </mxGeometry>
        </mxCell>
        <mxCell id="3K-KdEBF6QyR_X1sGFoG-111" value="min1" style="text;html=1;align=center;verticalAlign=middle;whiteSpace=wrap;rounded=0;" parent="1" vertex="1">
          <mxGeometry x="435" y="291.85" width="60" height="30" as="geometry" />
        </mxCell>
        <mxCell id="3K-KdEBF6QyR_X1sGFoG-112" value="max1" style="text;html=1;align=center;verticalAlign=middle;whiteSpace=wrap;rounded=0;" parent="1" vertex="1">
          <mxGeometry x="435" y="410" width="60" height="30" as="geometry" />
        </mxCell>
        <mxCell id="3K-KdEBF6QyR_X1sGFoG-113" value="min5" style="text;html=1;align=center;verticalAlign=middle;whiteSpace=wrap;rounded=0;" parent="1" vertex="1">
          <mxGeometry x="435" y="490" width="60" height="30" as="geometry" />
        </mxCell>
        <mxCell id="3K-KdEBF6QyR_X1sGFoG-114" value="max5" style="text;html=1;align=center;verticalAlign=middle;whiteSpace=wrap;rounded=0;" parent="1" vertex="1">
          <mxGeometry x="435" y="610" width="60" height="30" as="geometry" />
        </mxCell>
        <mxCell id="3K-KdEBF6QyR_X1sGFoG-115" value="SortAscending5 (Col0)" style="rounded=0;whiteSpace=wrap;html=1;" parent="1" vertex="1">
          <mxGeometry x="550" y="300" width="90" height="170" as="geometry" />
        </mxCell>
        <mxCell id="3K-KdEBF6QyR_X1sGFoG-116" value="SortAscending5 (Col4)" style="rounded=0;whiteSpace=wrap;html=1;" parent="1" vertex="1">
          <mxGeometry x="550" y="500" width="90" height="170" as="geometry" />
        </mxCell>
        <mxCell id="3K-KdEBF6QyR_X1sGFoG-141" value="" style="endArrow=none;html=1;rounded=0;" parent="1" edge="1">
          <mxGeometry width="50" height="50" relative="1" as="geometry">
            <mxPoint x="640" y="320" as="sourcePoint" />
            <mxPoint x="720" y="320" as="targetPoint" />
          </mxGeometry>
        </mxCell>
        <mxCell id="3K-KdEBF6QyR_X1sGFoG-145" value="" style="endArrow=none;html=1;rounded=0;" parent="1" edge="1">
          <mxGeometry width="50" height="50" relative="1" as="geometry">
            <mxPoint x="640" y="360" as="sourcePoint" />
            <mxPoint x="720" y="360" as="targetPoint" />
          </mxGeometry>
        </mxCell>
        <mxCell id="3K-KdEBF6QyR_X1sGFoG-153" value="" style="endArrow=none;html=1;rounded=0;" parent="1" edge="1">
          <mxGeometry width="50" height="50" relative="1" as="geometry">
            <mxPoint x="640" y="439.39" as="sourcePoint" />
            <mxPoint x="720" y="439.39" as="targetPoint" />
          </mxGeometry>
        </mxCell>
        <mxCell id="3K-KdEBF6QyR_X1sGFoG-183" value="" style="endArrow=none;html=1;rounded=0;" parent="1" edge="1">
          <mxGeometry width="50" height="50" relative="1" as="geometry">
            <mxPoint x="640" y="520" as="sourcePoint" />
            <mxPoint x="720" y="520" as="targetPoint" />
          </mxGeometry>
        </mxCell>
        <mxCell id="3K-KdEBF6QyR_X1sGFoG-187" value="" style="endArrow=none;html=1;rounded=0;entryX=0;entryY=0.132;entryDx=0;entryDy=0;entryPerimeter=0;" parent="1" edge="1">
          <mxGeometry width="50" height="50" relative="1" as="geometry">
            <mxPoint x="640" y="560" as="sourcePoint" />
            <mxPoint x="760" y="622.44" as="targetPoint" />
            <Array as="points">
              <mxPoint x="710" y="560" />
              <mxPoint x="730" y="622" />
            </Array>
          </mxGeometry>
        </mxCell>
        <mxCell id="3K-KdEBF6QyR_X1sGFoG-191" value="" style="endArrow=none;html=1;rounded=0;" parent="1" edge="1">
          <mxGeometry width="50" height="50" relative="1" as="geometry">
            <mxPoint x="640" y="640" as="sourcePoint" />
            <mxPoint x="720" y="640" as="targetPoint" />
          </mxGeometry>
        </mxCell>
        <mxCell id="3K-KdEBF6QyR_X1sGFoG-196" value="SortAscending5 (Diag1)" style="rounded=0;whiteSpace=wrap;html=1;" parent="1" vertex="1">
          <mxGeometry x="730" y="390" width="120" height="170" as="geometry" />
        </mxCell>
        <mxCell id="3K-KdEBF6QyR_X1sGFoG-198" value="" style="endArrow=none;html=1;rounded=0;" parent="1" edge="1">
          <mxGeometry width="50" height="50" relative="1" as="geometry">
            <mxPoint x="640" y="412.24" as="sourcePoint" />
            <mxPoint x="770" y="320" as="targetPoint" />
            <Array as="points">
              <mxPoint x="670" y="412" />
              <mxPoint x="730" y="370" />
              <mxPoint x="740" y="320" />
            </Array>
          </mxGeometry>
        </mxCell>
        <mxCell id="3K-KdEBF6QyR_X1sGFoG-202" value="....." style="text;html=1;align=center;verticalAlign=middle;whiteSpace=wrap;rounded=0;rotation=90;" parent="1" vertex="1">
          <mxGeometry x="689" y="460" width="60" height="30" as="geometry" />
        </mxCell>
        <mxCell id="3K-KdEBF6QyR_X1sGFoG-224" value="" style="endArrow=none;html=1;rounded=0;entryX=0;entryY=0.5;entryDx=0;entryDy=0;" parent="1" target="3K-KdEBF6QyR_X1sGFoG-241" edge="1">
          <mxGeometry width="50" height="50" relative="1" as="geometry">
            <mxPoint x="980" y="496.3" as="sourcePoint" />
            <mxPoint x="1060" y="496.3" as="targetPoint" />
          </mxGeometry>
        </mxCell>
        <mxCell id="3K-KdEBF6QyR_X1sGFoG-239" value="mid" style="text;html=1;align=center;verticalAlign=middle;whiteSpace=wrap;rounded=0;" parent="1" vertex="1">
          <mxGeometry x="1273.5" y="470" width="60" height="30" as="geometry" />
        </mxCell>
        <mxCell id="3K-KdEBF6QyR_X1sGFoG-240" value="min" style="text;html=1;align=center;verticalAlign=middle;whiteSpace=wrap;rounded=0;" parent="1" vertex="1">
          <mxGeometry x="1273.5" y="520" width="60" height="30" as="geometry" />
        </mxCell>
        <mxCell id="3K-KdEBF6QyR_X1sGFoG-241" value="SortingNetwork" style="rounded=0;whiteSpace=wrap;html=1;" parent="1" vertex="1">
          <mxGeometry x="1370" y="410" width="120" height="170" as="geometry" />
        </mxCell>
        <mxCell id="3K-KdEBF6QyR_X1sGFoG-243" value="" style="endArrow=none;html=1;rounded=0;exitX=1;exitY=0.5;exitDx=0;exitDy=0;" parent="1" source="3K-KdEBF6QyR_X1sGFoG-241" edge="1">
          <mxGeometry width="50" height="50" relative="1" as="geometry">
            <mxPoint x="1360" y="500" as="sourcePoint" />
            <mxPoint x="1590" y="495" as="targetPoint" />
          </mxGeometry>
        </mxCell>
        <mxCell id="3K-KdEBF6QyR_X1sGFoG-244" value="median_o" style="text;html=1;align=center;verticalAlign=middle;whiteSpace=wrap;rounded=0;" parent="1" vertex="1">
          <mxGeometry x="1600" y="470" width="60" height="30" as="geometry" />
        </mxCell>
        <mxCell id="3K-KdEBF6QyR_X1sGFoG-246" value="SortAscending5" style="rounded=0;whiteSpace=wrap;html=1;" parent="1" vertex="1">
          <mxGeometry x="320" y="-40" width="120" height="220" as="geometry" />
        </mxCell>
        <mxCell id="3K-KdEBF6QyR_X1sGFoG-247" value="" style="endArrow=classic;html=1;rounded=0;entryX=0.02;entryY=0.183;entryDx=0;entryDy=0;entryPerimeter=0;" parent="1" target="3K-KdEBF6QyR_X1sGFoG-246" edge="1">
          <mxGeometry width="50" height="50" relative="1" as="geometry">
            <mxPoint x="200" as="sourcePoint" />
            <mxPoint x="250" y="-50" as="targetPoint" />
          </mxGeometry>
        </mxCell>
        <mxCell id="3K-KdEBF6QyR_X1sGFoG-248" value="S1" style="text;html=1;align=center;verticalAlign=middle;whiteSpace=wrap;rounded=0;" parent="1" vertex="1">
          <mxGeometry x="210" y="-30" width="60" height="30" as="geometry" />
        </mxCell>
        <mxCell id="3K-KdEBF6QyR_X1sGFoG-249" value="" style="endArrow=classic;html=1;rounded=0;entryX=-0.001;entryY=0.36;entryDx=0;entryDy=0;entryPerimeter=0;" parent="1" target="3K-KdEBF6QyR_X1sGFoG-246" edge="1">
          <mxGeometry width="50" height="50" relative="1" as="geometry">
            <mxPoint x="200" y="40" as="sourcePoint" />
            <mxPoint x="322" y="41" as="targetPoint" />
          </mxGeometry>
        </mxCell>
        <mxCell id="3K-KdEBF6QyR_X1sGFoG-250" value="S2" style="text;html=1;align=center;verticalAlign=middle;whiteSpace=wrap;rounded=0;" parent="1" vertex="1">
          <mxGeometry x="210" y="10" width="60" height="30" as="geometry" />
        </mxCell>
        <mxCell id="3K-KdEBF6QyR_X1sGFoG-251" value="" style="endArrow=classic;html=1;rounded=0;entryX=0.02;entryY=0.183;entryDx=0;entryDy=0;entryPerimeter=0;" parent="1" edge="1">
          <mxGeometry width="50" height="50" relative="1" as="geometry">
            <mxPoint x="198" y="80" as="sourcePoint" />
            <mxPoint x="320" y="81" as="targetPoint" />
          </mxGeometry>
        </mxCell>
        <mxCell id="3K-KdEBF6QyR_X1sGFoG-252" value="S3" style="text;html=1;align=center;verticalAlign=middle;whiteSpace=wrap;rounded=0;" parent="1" vertex="1">
          <mxGeometry x="210" y="50" width="60" height="30" as="geometry" />
        </mxCell>
        <mxCell id="3K-KdEBF6QyR_X1sGFoG-253" value="" style="endArrow=classic;html=1;rounded=0;entryX=0.001;entryY=0.728;entryDx=0;entryDy=0;entryPerimeter=0;" parent="1" target="3K-KdEBF6QyR_X1sGFoG-246" edge="1">
          <mxGeometry width="50" height="50" relative="1" as="geometry">
            <mxPoint x="199" y="120" as="sourcePoint" />
            <mxPoint x="321" y="121" as="targetPoint" />
          </mxGeometry>
        </mxCell>
        <mxCell id="3K-KdEBF6QyR_X1sGFoG-254" value="" style="endArrow=classic;html=1;rounded=0;entryX=0.02;entryY=0.183;entryDx=0;entryDy=0;entryPerimeter=0;" parent="1" edge="1">
          <mxGeometry width="50" height="50" relative="1" as="geometry">
            <mxPoint x="198" y="160" as="sourcePoint" />
            <mxPoint x="320" y="161" as="targetPoint" />
          </mxGeometry>
        </mxCell>
        <mxCell id="3K-KdEBF6QyR_X1sGFoG-256" value="S4" style="text;html=1;align=center;verticalAlign=middle;whiteSpace=wrap;rounded=0;" parent="1" vertex="1">
          <mxGeometry x="210" y="90" width="60" height="30" as="geometry" />
        </mxCell>
        <mxCell id="3K-KdEBF6QyR_X1sGFoG-257" value="S5" style="text;html=1;align=center;verticalAlign=middle;whiteSpace=wrap;rounded=0;" parent="1" vertex="1">
          <mxGeometry x="210" y="130" width="60" height="30" as="geometry" />
        </mxCell>
        <mxCell id="3K-KdEBF6QyR_X1sGFoG-258" value="" style="endArrow=classic;html=1;rounded=0;entryX=0.02;entryY=0.183;entryDx=0;entryDy=0;entryPerimeter=0;" parent="1" edge="1">
          <mxGeometry width="50" height="50" relative="1" as="geometry">
            <mxPoint x="442" as="sourcePoint" />
            <mxPoint x="564" as="targetPoint" />
          </mxGeometry>
        </mxCell>
        <mxCell id="3K-KdEBF6QyR_X1sGFoG-259" value="min" style="text;html=1;align=center;verticalAlign=middle;whiteSpace=wrap;rounded=0;" parent="1" vertex="1">
          <mxGeometry x="452" y="-30" width="60" height="30" as="geometry" />
        </mxCell>
        <mxCell id="3K-KdEBF6QyR_X1sGFoG-260" value="" style="endArrow=classic;html=1;rounded=0;entryX=0.02;entryY=0.183;entryDx=0;entryDy=0;entryPerimeter=0;" parent="1" edge="1">
          <mxGeometry width="50" height="50" relative="1" as="geometry">
            <mxPoint x="442" y="40" as="sourcePoint" />
            <mxPoint x="564" y="41" as="targetPoint" />
          </mxGeometry>
        </mxCell>
        <mxCell id="3K-KdEBF6QyR_X1sGFoG-261" value="out2" style="text;html=1;align=center;verticalAlign=middle;whiteSpace=wrap;rounded=0;" parent="1" vertex="1">
          <mxGeometry x="452" y="10" width="60" height="30" as="geometry" />
        </mxCell>
        <mxCell id="3K-KdEBF6QyR_X1sGFoG-262" value="" style="endArrow=classic;html=1;rounded=0;entryX=0.02;entryY=0.183;entryDx=0;entryDy=0;entryPerimeter=0;" parent="1" edge="1">
          <mxGeometry width="50" height="50" relative="1" as="geometry">
            <mxPoint x="440" y="80" as="sourcePoint" />
            <mxPoint x="562" y="81" as="targetPoint" />
          </mxGeometry>
        </mxCell>
        <mxCell id="3K-KdEBF6QyR_X1sGFoG-263" value="mid" style="text;html=1;align=center;verticalAlign=middle;whiteSpace=wrap;rounded=0;" parent="1" vertex="1">
          <mxGeometry x="452" y="50" width="60" height="30" as="geometry" />
        </mxCell>
        <mxCell id="3K-KdEBF6QyR_X1sGFoG-264" value="" style="endArrow=classic;html=1;rounded=0;entryX=0.02;entryY=0.183;entryDx=0;entryDy=0;entryPerimeter=0;" parent="1" edge="1">
          <mxGeometry width="50" height="50" relative="1" as="geometry">
            <mxPoint x="441" y="120" as="sourcePoint" />
            <mxPoint x="563" y="121" as="targetPoint" />
          </mxGeometry>
        </mxCell>
        <mxCell id="3K-KdEBF6QyR_X1sGFoG-265" value="" style="endArrow=classic;html=1;rounded=0;entryX=0.02;entryY=0.183;entryDx=0;entryDy=0;entryPerimeter=0;" parent="1" edge="1">
          <mxGeometry width="50" height="50" relative="1" as="geometry">
            <mxPoint x="440" y="160" as="sourcePoint" />
            <mxPoint x="562" y="161" as="targetPoint" />
          </mxGeometry>
        </mxCell>
        <mxCell id="3K-KdEBF6QyR_X1sGFoG-266" value="out4" style="text;html=1;align=center;verticalAlign=middle;whiteSpace=wrap;rounded=0;" parent="1" vertex="1">
          <mxGeometry x="452" y="90" width="60" height="30" as="geometry" />
        </mxCell>
        <mxCell id="3K-KdEBF6QyR_X1sGFoG-267" value="max" style="text;html=1;align=center;verticalAlign=middle;whiteSpace=wrap;rounded=0;" parent="1" vertex="1">
          <mxGeometry x="452" y="130" width="60" height="30" as="geometry" />
        </mxCell>
        <mxCell id="3K-KdEBF6QyR_X1sGFoG-268" value="SortingNetwork" style="rounded=0;whiteSpace=wrap;html=1;" parent="1" vertex="1">
          <mxGeometry x="836" y="-385" width="90" height="140" as="geometry" />
        </mxCell>
        <mxCell id="3K-KdEBF6QyR_X1sGFoG-269" value="" style="endArrow=classic;html=1;rounded=0;entryX=-0.008;entryY=0.178;entryDx=0;entryDy=0;entryPerimeter=0;" parent="1" target="3K-KdEBF6QyR_X1sGFoG-268" edge="1">
          <mxGeometry width="50" height="50" relative="1" as="geometry">
            <mxPoint x="800" y="-360" as="sourcePoint" />
            <mxPoint x="835.9999999999999" y="-354.99999999999994" as="targetPoint" />
          </mxGeometry>
        </mxCell>
        <mxCell id="3K-KdEBF6QyR_X1sGFoG-270" value="S1" style="text;html=1;align=center;verticalAlign=middle;whiteSpace=wrap;rounded=0;" parent="1" vertex="1">
          <mxGeometry x="770" y="-385.65" width="60" height="30" as="geometry" />
        </mxCell>
        <mxCell id="3K-KdEBF6QyR_X1sGFoG-271" value="" style="endArrow=classic;html=1;rounded=0;entryX=0.01;entryY=0.212;entryDx=0;entryDy=0;entryPerimeter=0;" parent="1" edge="1">
          <mxGeometry width="50" height="50" relative="1" as="geometry">
            <mxPoint x="800" y="-320" as="sourcePoint" />
            <mxPoint x="836" y="-320.14" as="targetPoint" />
          </mxGeometry>
        </mxCell>
        <mxCell id="3K-KdEBF6QyR_X1sGFoG-273" value="S2" style="text;html=1;align=center;verticalAlign=middle;whiteSpace=wrap;rounded=0;" parent="1" vertex="1">
          <mxGeometry x="770" y="-340" width="60" height="30" as="geometry" />
        </mxCell>
        <mxCell id="3K-KdEBF6QyR_X1sGFoG-274" value="" style="endArrow=classic;html=1;rounded=0;entryX=0;entryY=0.75;entryDx=0;entryDy=0;" parent="1" target="3K-KdEBF6QyR_X1sGFoG-268" edge="1">
          <mxGeometry width="50" height="50" relative="1" as="geometry">
            <mxPoint x="800" y="-280" as="sourcePoint" />
            <mxPoint x="836" y="-275.14" as="targetPoint" />
          </mxGeometry>
        </mxCell>
        <mxCell id="3K-KdEBF6QyR_X1sGFoG-275" value="S3" style="text;html=1;align=center;verticalAlign=middle;whiteSpace=wrap;rounded=0;" parent="1" vertex="1">
          <mxGeometry x="770" y="-310" width="60" height="30" as="geometry" />
        </mxCell>
        <mxCell id="3K-KdEBF6QyR_X1sGFoG-276" value="SortingNetwork" style="rounded=0;whiteSpace=wrap;html=1;" parent="1" vertex="1">
          <mxGeometry x="990" y="-218.15" width="90" height="140" as="geometry" />
        </mxCell>
        <mxCell id="3K-KdEBF6QyR_X1sGFoG-277" value="" style="endArrow=classic;html=1;rounded=0;entryX=-0.006;entryY=0.419;entryDx=0;entryDy=0;entryPerimeter=0;" parent="1" target="3K-KdEBF6QyR_X1sGFoG-276" edge="1">
          <mxGeometry width="50" height="50" relative="1" as="geometry">
            <mxPoint x="800" y="-160" as="sourcePoint" />
            <mxPoint x="836" y="-145" as="targetPoint" />
          </mxGeometry>
        </mxCell>
        <mxCell id="3K-KdEBF6QyR_X1sGFoG-278" value="S4" style="text;html=1;align=center;verticalAlign=middle;whiteSpace=wrap;rounded=0;" parent="1" vertex="1">
          <mxGeometry x="776" y="-200" width="60" height="30" as="geometry" />
        </mxCell>
        <mxCell id="3K-KdEBF6QyR_X1sGFoG-279" value="" style="endArrow=classic;html=1;rounded=0;entryX=0.022;entryY=0.705;entryDx=0;entryDy=0;entryPerimeter=0;" parent="1" target="3K-KdEBF6QyR_X1sGFoG-276" edge="1">
          <mxGeometry width="50" height="50" relative="1" as="geometry">
            <mxPoint x="800" y="-119" as="sourcePoint" />
            <mxPoint x="836" y="-105" as="targetPoint" />
          </mxGeometry>
        </mxCell>
        <mxCell id="3K-KdEBF6QyR_X1sGFoG-280" value="S5" style="text;html=1;align=center;verticalAlign=middle;whiteSpace=wrap;rounded=0;" parent="1" vertex="1">
          <mxGeometry x="780" y="-160" width="60" height="30" as="geometry" />
        </mxCell>
        <mxCell id="3K-KdEBF6QyR_X1sGFoG-281" value="" style="endArrow=classic;html=1;rounded=0;exitX=1.004;exitY=0.788;exitDx=0;exitDy=0;exitPerimeter=0;entryX=-0.002;entryY=0.206;entryDx=0;entryDy=0;entryPerimeter=0;" parent="1" source="3K-KdEBF6QyR_X1sGFoG-268" target="3K-KdEBF6QyR_X1sGFoG-276" edge="1">
          <mxGeometry width="50" height="50" relative="1" as="geometry">
            <mxPoint x="981" y="-255" as="sourcePoint" />
            <mxPoint x="1031" y="-305" as="targetPoint" />
            <Array as="points">
              <mxPoint x="970" y="-275" />
              <mxPoint x="970" y="-235" />
              <mxPoint x="970" y="-240" />
              <mxPoint x="970" y="-190" />
            </Array>
          </mxGeometry>
        </mxCell>
        <mxCell id="3K-KdEBF6QyR_X1sGFoG-283" value="max" style="text;html=1;align=center;verticalAlign=middle;whiteSpace=wrap;rounded=0;" parent="1" vertex="1">
          <mxGeometry x="1390" y="-130" width="60" height="30" as="geometry" />
        </mxCell>
        <mxCell id="3K-KdEBF6QyR_X1sGFoG-288" value="SortingNetwork" style="rounded=0;whiteSpace=wrap;html=1;" parent="1" vertex="1">
          <mxGeometry x="1140" y="-330" width="90" height="140" as="geometry" />
        </mxCell>
        <mxCell id="3K-KdEBF6QyR_X1sGFoG-292" value="out4" style="text;html=1;align=center;verticalAlign=middle;whiteSpace=wrap;rounded=0;" parent="1" vertex="1">
          <mxGeometry x="1390" y="-170" width="60" height="30" as="geometry" />
        </mxCell>
        <mxCell id="3K-KdEBF6QyR_X1sGFoG-297" value="SortingNetwork" style="rounded=0;whiteSpace=wrap;html=1;" parent="1" vertex="1">
          <mxGeometry x="1280" y="-385.00000000000006" width="90" height="140" as="geometry" />
        </mxCell>
        <mxCell id="3K-KdEBF6QyR_X1sGFoG-299" value="" style="endArrow=classic;html=1;rounded=0;" parent="1" edge="1">
          <mxGeometry width="50" height="50" relative="1" as="geometry">
            <mxPoint x="1370" y="-280" as="sourcePoint" />
            <mxPoint x="1420" y="-280" as="targetPoint" />
          </mxGeometry>
        </mxCell>
        <mxCell id="3K-KdEBF6QyR_X1sGFoG-300" value="" style="endArrow=classic;html=1;rounded=0;exitX=1.024;exitY=0.469;exitDx=0;exitDy=0;exitPerimeter=0;" parent="1" source="3K-KdEBF6QyR_X1sGFoG-297" edge="1">
          <mxGeometry width="50" height="50" relative="1" as="geometry">
            <mxPoint x="1370" y="-325.5" as="sourcePoint" />
            <mxPoint x="1420" y="-319" as="targetPoint" />
          </mxGeometry>
        </mxCell>
        <mxCell id="3K-KdEBF6QyR_X1sGFoG-302" value="min" style="text;html=1;align=center;verticalAlign=middle;whiteSpace=wrap;rounded=0;" parent="1" vertex="1">
          <mxGeometry x="1390" y="-390" width="60" height="30" as="geometry" />
        </mxCell>
        <mxCell id="3K-KdEBF6QyR_X1sGFoG-303" value="out2" style="text;html=1;align=center;verticalAlign=middle;whiteSpace=wrap;rounded=0;" parent="1" vertex="1">
          <mxGeometry x="1390" y="-355.65" width="60" height="30" as="geometry" />
        </mxCell>
        <mxCell id="3K-KdEBF6QyR_X1sGFoG-304" value="mid" style="text;html=1;align=center;verticalAlign=middle;whiteSpace=wrap;rounded=0;" parent="1" vertex="1">
          <mxGeometry x="1390" y="-310" width="60" height="30" as="geometry" />
        </mxCell>
        <mxCell id="3K-KdEBF6QyR_X1sGFoG-308" value="SortingNetwork" style="rounded=0;whiteSpace=wrap;html=1;" parent="1" vertex="1">
          <mxGeometry x="750" y="260" width="90" height="106.3" as="geometry" />
        </mxCell>
        <mxCell id="3K-KdEBF6QyR_X1sGFoG-310" value="SortingNetwork" style="rounded=0;whiteSpace=wrap;html=1;" parent="1" vertex="1">
          <mxGeometry x="1060" y="291.84999999999997" width="90" height="106.3" as="geometry" />
        </mxCell>
        <mxCell id="3K-KdEBF6QyR_X1sGFoG-311" value="" style="endArrow=none;html=1;rounded=0;exitX=1;exitY=0.944;exitDx=0;exitDy=0;exitPerimeter=0;entryX=-0.013;entryY=0.644;entryDx=0;entryDy=0;entryPerimeter=0;" parent="1" source="3K-KdEBF6QyR_X1sGFoG-308" target="3K-KdEBF6QyR_X1sGFoG-310" edge="1">
          <mxGeometry width="50" height="50" relative="1" as="geometry">
            <mxPoint x="1010" y="400" as="sourcePoint" />
            <mxPoint x="1060" y="350" as="targetPoint" />
          </mxGeometry>
        </mxCell>
        <mxCell id="3K-KdEBF6QyR_X1sGFoG-314" value="" style="group" parent="1" vertex="1" connectable="0">
          <mxGeometry x="1295.5" y="430" width="9" height="23.69534555712272" as="geometry" />
        </mxCell>
        <mxCell id="3K-KdEBF6QyR_X1sGFoG-315" value="" style="rounded=0;whiteSpace=wrap;html=1;" parent="3K-KdEBF6QyR_X1sGFoG-314" vertex="1">
          <mxGeometry width="9" height="23.695345557122707" as="geometry" />
        </mxCell>
        <mxCell id="3K-KdEBF6QyR_X1sGFoG-316" value="" style="triangle;whiteSpace=wrap;html=1;rotation=270;" parent="3K-KdEBF6QyR_X1sGFoG-314" vertex="1">
          <mxGeometry x="1" y="18" width="7" height="4" as="geometry" />
        </mxCell>
        <mxCell id="3K-KdEBF6QyR_X1sGFoG-317" value="max" style="text;html=1;align=center;verticalAlign=middle;whiteSpace=wrap;rounded=0;" parent="1" vertex="1">
          <mxGeometry x="1273.5" y="400" width="60" height="30" as="geometry" />
        </mxCell>
        <mxCell id="3K-KdEBF6QyR_X1sGFoG-321" value="" style="endArrow=none;html=1;rounded=0;entryX=0;entryY=0.19;entryDx=0;entryDy=0;entryPerimeter=0;exitX=1;exitY=0.755;exitDx=0;exitDy=0;exitPerimeter=0;" parent="1" source="3K-KdEBF6QyR_X1sGFoG-322" target="3K-KdEBF6QyR_X1sGFoG-323" edge="1">
          <mxGeometry width="50" height="50" relative="1" as="geometry">
            <mxPoint x="956" y="640" as="sourcePoint" />
            <mxPoint x="1006" y="590" as="targetPoint" />
          </mxGeometry>
        </mxCell>
        <mxCell id="3K-KdEBF6QyR_X1sGFoG-322" value="SortingNetwork" style="rounded=0;whiteSpace=wrap;html=1;" parent="1" vertex="1">
          <mxGeometry x="761" y="583.7" width="90" height="106.3" as="geometry" />
        </mxCell>
        <mxCell id="3K-KdEBF6QyR_X1sGFoG-323" value="SortingNetwork" style="rounded=0;whiteSpace=wrap;html=1;" parent="1" vertex="1">
          <mxGeometry x="979.5" y="660" width="90" height="106.3" as="geometry" />
        </mxCell>
        <mxCell id="3K-KdEBF6QyR_X1sGFoG-324" value="SortingNetwork" style="rounded=0;whiteSpace=wrap;html=1;" parent="1" vertex="1">
          <mxGeometry x="1100" y="600" width="90" height="106.3" as="geometry" />
        </mxCell>
        <mxCell id="3K-KdEBF6QyR_X1sGFoG-325" value="" style="endArrow=none;html=1;rounded=0;exitX=0.999;exitY=0.185;exitDx=0;exitDy=0;exitPerimeter=0;entryX=0;entryY=0.75;entryDx=0;entryDy=0;" parent="1" source="3K-KdEBF6QyR_X1sGFoG-323" target="3K-KdEBF6QyR_X1sGFoG-324" edge="1">
          <mxGeometry width="50" height="50" relative="1" as="geometry">
            <mxPoint x="1050" y="680" as="sourcePoint" />
            <mxPoint x="1100" y="689" as="targetPoint" />
          </mxGeometry>
        </mxCell>
        <mxCell id="3K-KdEBF6QyR_X1sGFoG-330" value="" style="group" parent="1" vertex="1" connectable="0">
          <mxGeometry x="1299" y="550" width="9" height="23.69534555712272" as="geometry" />
        </mxCell>
        <mxCell id="3K-KdEBF6QyR_X1sGFoG-331" value="" style="rounded=0;whiteSpace=wrap;html=1;" parent="3K-KdEBF6QyR_X1sGFoG-330" vertex="1">
          <mxGeometry width="9" height="23.695345557122707" as="geometry" />
        </mxCell>
        <mxCell id="3K-KdEBF6QyR_X1sGFoG-332" value="" style="triangle;whiteSpace=wrap;html=1;rotation=270;" parent="3K-KdEBF6QyR_X1sGFoG-330" vertex="1">
          <mxGeometry x="1" y="18" width="7" height="4" as="geometry" />
        </mxCell>
        <mxCell id="F14II7xJjJFJrzi5FcKY-79" value="" style="endArrow=classic;html=1;rounded=0;exitX=0.999;exitY=0.468;exitDx=0;exitDy=0;entryX=-0.02;entryY=0.069;entryDx=0;entryDy=0;entryPerimeter=0;exitPerimeter=0;" parent="1" source="3K-KdEBF6QyR_X1sGFoG-268" target="3K-KdEBF6QyR_X1sGFoG-288" edge="1">
          <mxGeometry width="50" height="50" relative="1" as="geometry">
            <mxPoint x="1040" y="-286.85" as="sourcePoint" />
            <mxPoint x="1090" y="-336.85" as="targetPoint" />
          </mxGeometry>
        </mxCell>
        <mxCell id="F14II7xJjJFJrzi5FcKY-91" value="" style="endArrow=classic;html=1;rounded=0;entryX=-0.004;entryY=0.172;entryDx=0;entryDy=0;entryPerimeter=0;exitX=0.999;exitY=0.179;exitDx=0;exitDy=0;exitPerimeter=0;" parent="1" source="3K-KdEBF6QyR_X1sGFoG-268" target="3K-KdEBF6QyR_X1sGFoG-297" edge="1">
          <mxGeometry width="50" height="50" relative="1" as="geometry">
            <mxPoint x="930" y="-360" as="sourcePoint" />
            <mxPoint x="1105" y="-390" as="targetPoint" />
          </mxGeometry>
        </mxCell>
        <mxCell id="F14II7xJjJFJrzi5FcKY-93" value="" style="endArrow=classic;html=1;rounded=0;exitX=0.994;exitY=0.094;exitDx=0;exitDy=0;exitPerimeter=0;entryX=-0.021;entryY=0.496;entryDx=0;entryDy=0;entryPerimeter=0;" parent="1" source="3K-KdEBF6QyR_X1sGFoG-276" target="3K-KdEBF6QyR_X1sGFoG-288" edge="1">
          <mxGeometry width="50" height="50" relative="1" as="geometry">
            <mxPoint x="1134" y="-205" as="sourcePoint" />
            <mxPoint x="1225" y="-260" as="targetPoint" />
            <Array as="points">
              <mxPoint x="1110" y="-205" />
              <mxPoint x="1120" y="-260" />
            </Array>
          </mxGeometry>
        </mxCell>
        <mxCell id="F14II7xJjJFJrzi5FcKY-94" value="" style="endArrow=classic;html=1;rounded=0;exitX=1.002;exitY=0.412;exitDx=0;exitDy=0;exitPerimeter=0;entryX=-0.011;entryY=0.818;entryDx=0;entryDy=0;entryPerimeter=0;" parent="1" source="3K-KdEBF6QyR_X1sGFoG-276" target="3K-KdEBF6QyR_X1sGFoG-288" edge="1">
          <mxGeometry width="50" height="50" relative="1" as="geometry">
            <mxPoint x="1150" y="-130" as="sourcePoint" />
            <mxPoint x="1200" y="-180" as="targetPoint" />
            <Array as="points">
              <mxPoint x="1120" y="-160" />
              <mxPoint x="1120" y="-215" />
            </Array>
          </mxGeometry>
        </mxCell>
        <mxCell id="F14II7xJjJFJrzi5FcKY-95" value="" style="endArrow=classic;html=1;rounded=0;exitX=0.998;exitY=0.85;exitDx=0;exitDy=0;exitPerimeter=0;" parent="1" source="3K-KdEBF6QyR_X1sGFoG-276" edge="1">
          <mxGeometry width="50" height="50" relative="1" as="geometry">
            <mxPoint x="1189" y="-73.15" as="sourcePoint" />
            <mxPoint x="1420" y="-99" as="targetPoint" />
            <Array as="points">
              <mxPoint x="1215" y="-100" />
            </Array>
          </mxGeometry>
        </mxCell>
        <mxCell id="F14II7xJjJFJrzi5FcKY-102" value="" style="endArrow=classic;html=1;rounded=0;exitX=1.001;exitY=0.793;exitDx=0;exitDy=0;exitPerimeter=0;" parent="1" source="3K-KdEBF6QyR_X1sGFoG-288" edge="1">
          <mxGeometry width="50" height="50" relative="1" as="geometry">
            <mxPoint x="1320" y="-220" as="sourcePoint" />
            <mxPoint x="1420" y="-140" as="targetPoint" />
            <Array as="points">
              <mxPoint x="1370" y="-220" />
              <mxPoint x="1370" y="-140" />
            </Array>
          </mxGeometry>
        </mxCell>
        <mxCell id="F14II7xJjJFJrzi5FcKY-106" value="" style="endArrow=classic;html=1;rounded=0;exitX=0.994;exitY=0.067;exitDx=0;exitDy=0;exitPerimeter=0;entryX=-0.009;entryY=0.456;entryDx=0;entryDy=0;entryPerimeter=0;" parent="1" source="3K-KdEBF6QyR_X1sGFoG-288" target="3K-KdEBF6QyR_X1sGFoG-297" edge="1">
          <mxGeometry width="50" height="50" relative="1" as="geometry">
            <mxPoint x="1360" y="-286.85" as="sourcePoint" />
            <mxPoint x="1410" y="-336.85" as="targetPoint" />
          </mxGeometry>
        </mxCell>
        <mxCell id="F14II7xJjJFJrzi5FcKY-107" value="" style="endArrow=classic;html=1;rounded=0;exitX=1;exitY=0.424;exitDx=0;exitDy=0;exitPerimeter=0;entryX=-0.025;entryY=0.816;entryDx=0;entryDy=0;entryPerimeter=0;" parent="1" source="3K-KdEBF6QyR_X1sGFoG-288" target="3K-KdEBF6QyR_X1sGFoG-297" edge="1">
          <mxGeometry width="50" height="50" relative="1" as="geometry">
            <mxPoint x="1320" y="-220" as="sourcePoint" />
            <mxPoint x="1370" y="-270" as="targetPoint" />
          </mxGeometry>
        </mxCell>
        <mxCell id="F14II7xJjJFJrzi5FcKY-120" value="" style="group" parent="1" vertex="1" connectable="0">
          <mxGeometry x="1020" y="350" width="9" height="23.69534555712272" as="geometry" />
        </mxCell>
        <mxCell id="F14II7xJjJFJrzi5FcKY-121" value="" style="rounded=0;whiteSpace=wrap;html=1;" parent="F14II7xJjJFJrzi5FcKY-120" vertex="1">
          <mxGeometry width="9" height="23.695345557122707" as="geometry" />
        </mxCell>
        <mxCell id="F14II7xJjJFJrzi5FcKY-122" value="" style="triangle;whiteSpace=wrap;html=1;rotation=270;" parent="F14II7xJjJFJrzi5FcKY-120" vertex="1">
          <mxGeometry x="1" y="18" width="7" height="4" as="geometry" />
        </mxCell>
        <mxCell id="F14II7xJjJFJrzi5FcKY-123" value="" style="group" parent="1" vertex="1" connectable="0">
          <mxGeometry x="960" y="670" width="9" height="23.69534555712272" as="geometry" />
        </mxCell>
        <mxCell id="F14II7xJjJFJrzi5FcKY-124" value="" style="rounded=0;whiteSpace=wrap;html=1;" parent="F14II7xJjJFJrzi5FcKY-123" vertex="1">
          <mxGeometry width="9" height="23.695345557122707" as="geometry" />
        </mxCell>
        <mxCell id="F14II7xJjJFJrzi5FcKY-125" value="" style="triangle;whiteSpace=wrap;html=1;rotation=270;" parent="F14II7xJjJFJrzi5FcKY-123" vertex="1">
          <mxGeometry x="1" y="18" width="7" height="4" as="geometry" />
        </mxCell>
        <mxCell id="F14II7xJjJFJrzi5FcKY-126" value="" style="group" parent="1" vertex="1" connectable="0">
          <mxGeometry x="1080" y="670" width="9" height="23.69534555712272" as="geometry" />
        </mxCell>
        <mxCell id="F14II7xJjJFJrzi5FcKY-127" value="" style="rounded=0;whiteSpace=wrap;html=1;" parent="F14II7xJjJFJrzi5FcKY-126" vertex="1">
          <mxGeometry width="9" height="23.695345557122707" as="geometry" />
        </mxCell>
        <mxCell id="F14II7xJjJFJrzi5FcKY-128" value="" style="triangle;whiteSpace=wrap;html=1;rotation=270;" parent="F14II7xJjJFJrzi5FcKY-126" vertex="1">
          <mxGeometry x="1" y="18" width="7" height="4" as="geometry" />
        </mxCell>
        <mxCell id="jqqaf2TlsOP0auP5mLFc-55" value="" style="group" parent="1" vertex="1" connectable="0">
          <mxGeometry x="1530" y="291.85" width="9" height="390" as="geometry" />
        </mxCell>
        <mxCell id="jqqaf2TlsOP0auP5mLFc-56" value="" style="rounded=0;whiteSpace=wrap;html=1;" parent="jqqaf2TlsOP0auP5mLFc-55" vertex="1">
          <mxGeometry width="9" height="390" as="geometry" />
        </mxCell>
        <mxCell id="jqqaf2TlsOP0auP5mLFc-57" value="" style="triangle;whiteSpace=wrap;html=1;rotation=270;" parent="jqqaf2TlsOP0auP5mLFc-55" vertex="1">
          <mxGeometry x="2" y="385" width="5" height="5" as="geometry" />
        </mxCell>
        <mxCell id="3irLFvAkG2f5oVOtQCix-1" value="" style="group" parent="1" vertex="1" connectable="0">
          <mxGeometry x="311" y="290" width="9" height="390" as="geometry" />
        </mxCell>
        <mxCell id="3irLFvAkG2f5oVOtQCix-2" value="" style="rounded=0;whiteSpace=wrap;html=1;" parent="3irLFvAkG2f5oVOtQCix-1" vertex="1">
          <mxGeometry width="9" height="390" as="geometry" />
        </mxCell>
        <mxCell id="3irLFvAkG2f5oVOtQCix-3" value="" style="triangle;whiteSpace=wrap;html=1;rotation=270;" parent="3irLFvAkG2f5oVOtQCix-1" vertex="1">
          <mxGeometry x="2" y="385" width="5" height="5" as="geometry" />
        </mxCell>
        <mxCell id="EKVh0Mmz-G9QV_60Vgnt-1" value="" style="group" parent="1" vertex="1" connectable="0">
          <mxGeometry x="1266" y="430" width="9" height="23.69534555712272" as="geometry" />
        </mxCell>
        <mxCell id="EKVh0Mmz-G9QV_60Vgnt-2" value="" style="rounded=0;whiteSpace=wrap;html=1;" parent="EKVh0Mmz-G9QV_60Vgnt-1" vertex="1">
          <mxGeometry width="9" height="23.695345557122707" as="geometry" />
        </mxCell>
        <mxCell id="EKVh0Mmz-G9QV_60Vgnt-3" value="" style="triangle;whiteSpace=wrap;html=1;rotation=270;" parent="EKVh0Mmz-G9QV_60Vgnt-1" vertex="1">
          <mxGeometry x="1" y="18" width="7" height="4" as="geometry" />
        </mxCell>
        <mxCell id="j8h_9UI9MdsuAqicEaxU-2" value="" style="group" parent="1" vertex="1" connectable="0">
          <mxGeometry x="490" y="291.85" width="9" height="390" as="geometry" />
        </mxCell>
        <mxCell id="j8h_9UI9MdsuAqicEaxU-3" value="" style="rounded=0;whiteSpace=wrap;html=1;" parent="j8h_9UI9MdsuAqicEaxU-2" vertex="1">
          <mxGeometry width="9" height="390" as="geometry" />
        </mxCell>
        <mxCell id="j8h_9UI9MdsuAqicEaxU-4" value="" style="triangle;whiteSpace=wrap;html=1;rotation=270;" parent="j8h_9UI9MdsuAqicEaxU-2" vertex="1">
          <mxGeometry x="2" y="385" width="5" height="5" as="geometry" />
        </mxCell>
        <mxCell id="j8h_9UI9MdsuAqicEaxU-5" value="" style="group" parent="1" vertex="1" connectable="0">
          <mxGeometry x="680" y="290" width="9" height="390" as="geometry" />
        </mxCell>
        <mxCell id="j8h_9UI9MdsuAqicEaxU-6" value="" style="rounded=0;whiteSpace=wrap;html=1;" parent="j8h_9UI9MdsuAqicEaxU-5" vertex="1">
          <mxGeometry width="9" height="390" as="geometry" />
        </mxCell>
        <mxCell id="j8h_9UI9MdsuAqicEaxU-7" value="" style="triangle;whiteSpace=wrap;html=1;rotation=270;" parent="j8h_9UI9MdsuAqicEaxU-5" vertex="1">
          <mxGeometry x="2" y="385" width="5" height="5" as="geometry" />
        </mxCell>
        <mxCell id="j8h_9UI9MdsuAqicEaxU-8" value="" style="group" parent="1" vertex="1" connectable="0">
          <mxGeometry x="1330" y="300" width="9" height="390" as="geometry" />
        </mxCell>
        <mxCell id="j8h_9UI9MdsuAqicEaxU-9" value="" style="rounded=0;whiteSpace=wrap;html=1;" parent="j8h_9UI9MdsuAqicEaxU-8" vertex="1">
          <mxGeometry width="9" height="390" as="geometry" />
        </mxCell>
        <mxCell id="j8h_9UI9MdsuAqicEaxU-10" value="" style="triangle;whiteSpace=wrap;html=1;rotation=270;" parent="j8h_9UI9MdsuAqicEaxU-8" vertex="1">
          <mxGeometry x="2" y="385" width="5" height="5" as="geometry" />
        </mxCell>
        <mxCell id="wFP3KYfhAiqptKN9aw-K-1" value="Bước 1:" style="text;html=1;align=center;verticalAlign=middle;whiteSpace=wrap;rounded=0;" parent="1" vertex="1">
          <mxGeometry x="220" y="-790" width="60" height="30" as="geometry" />
        </mxCell>
        <mxCell id="wFP3KYfhAiqptKN9aw-K-3" value="8&lt;span style=&quot;white-space: pre;&quot;&gt;&#x9;&lt;/span&gt;10&lt;span style=&quot;white-space: pre;&quot;&gt;&#x9;&lt;/span&gt;3&lt;span style=&quot;white-space: pre;&quot;&gt;&#x9;&lt;/span&gt;9&lt;span style=&quot;white-space: pre;&quot;&gt;&#x9;&lt;/span&gt;2" style="text;html=1;align=center;verticalAlign=middle;whiteSpace=wrap;rounded=0;" parent="1" vertex="1">
          <mxGeometry x="240" y="-790" width="300" height="30" as="geometry" />
        </mxCell>
        <mxCell id="wFP3KYfhAiqptKN9aw-K-5" value="Sắp xếp 3 phần tử đầu" style="text;html=1;align=center;verticalAlign=middle;whiteSpace=wrap;rounded=0;" parent="1" vertex="1">
          <mxGeometry x="469" y="-790" width="131" height="30" as="geometry" />
        </mxCell>
        <mxCell id="wFP3KYfhAiqptKN9aw-K-7" value="Bước 2:" style="text;html=1;align=center;verticalAlign=middle;whiteSpace=wrap;rounded=0;" parent="1" vertex="1">
          <mxGeometry x="220" y="-740" width="60" height="30" as="geometry" />
        </mxCell>
        <mxCell id="wFP3KYfhAiqptKN9aw-K-9" value="Sắp xếp 3 phần tử cuối" style="text;html=1;align=center;verticalAlign=middle;whiteSpace=wrap;rounded=0;" parent="1" vertex="1">
          <mxGeometry x="469" y="-740" width="131" height="30" as="geometry" />
        </mxCell>
        <mxCell id="wFP3KYfhAiqptKN9aw-K-11" value="Bước 3:" style="text;html=1;align=center;verticalAlign=middle;whiteSpace=wrap;rounded=0;" parent="1" vertex="1">
          <mxGeometry x="220" y="-690" width="60" height="30" as="geometry" />
        </mxCell>
        <mxCell id="wFP3KYfhAiqptKN9aw-K-13" value="Sắp xếp 3 phần tử giữa" style="text;html=1;align=center;verticalAlign=middle;whiteSpace=wrap;rounded=0;" parent="1" vertex="1">
          <mxGeometry x="469" y="-690" width="131" height="30" as="geometry" />
        </mxCell>
        <mxCell id="wFP3KYfhAiqptKN9aw-K-15" value="Bước 4:" style="text;html=1;align=center;verticalAlign=middle;whiteSpace=wrap;rounded=0;" parent="1" vertex="1">
          <mxGeometry x="220" y="-640" width="60" height="30" as="geometry" />
        </mxCell>
        <mxCell id="wFP3KYfhAiqptKN9aw-K-17" value="Sắp xếp 3 phần tử đầu" style="text;html=1;align=center;verticalAlign=middle;whiteSpace=wrap;rounded=0;" parent="1" vertex="1">
          <mxGeometry x="469" y="-640" width="131" height="30" as="geometry" />
        </mxCell>
        <mxCell id="wFP3KYfhAiqptKN9aw-K-18" value="" style="endArrow=classic;html=1;rounded=0;exitX=0.033;exitY=1;exitDx=0;exitDy=0;exitPerimeter=0;entryX=0.032;entryY=-0.009;entryDx=0;entryDy=0;entryPerimeter=0;" parent="1" source="wFP3KYfhAiqptKN9aw-K-3" target="wFP3KYfhAiqptKN9aw-K-8" edge="1">
          <mxGeometry width="50" height="50" relative="1" as="geometry">
            <mxPoint x="270" y="-680" as="sourcePoint" />
            <mxPoint x="320" y="-730" as="targetPoint" />
          </mxGeometry>
        </mxCell>
        <mxCell id="wFP3KYfhAiqptKN9aw-K-19" value="" style="endArrow=classic;html=1;rounded=0;exitX=0.033;exitY=1;exitDx=0;exitDy=0;exitPerimeter=0;entryX=0.032;entryY=-0.009;entryDx=0;entryDy=0;entryPerimeter=0;" parent="1" edge="1">
          <mxGeometry width="50" height="50" relative="1" as="geometry">
            <mxPoint x="249.92" y="-710" as="sourcePoint" />
            <mxPoint x="249.92" y="-690" as="targetPoint" />
          </mxGeometry>
        </mxCell>
        <mxCell id="wFP3KYfhAiqptKN9aw-K-20" value="" style="endArrow=classic;html=1;rounded=0;exitX=0.033;exitY=1;exitDx=0;exitDy=0;exitPerimeter=0;entryX=0.032;entryY=-0.009;entryDx=0;entryDy=0;entryPerimeter=0;" parent="1" edge="1">
          <mxGeometry width="50" height="50" relative="1" as="geometry">
            <mxPoint x="249.91999999999996" y="-660" as="sourcePoint" />
            <mxPoint x="249.91999999999996" y="-640" as="targetPoint" />
          </mxGeometry>
        </mxCell>
        <mxCell id="wFP3KYfhAiqptKN9aw-K-21" value="" style="endArrow=classic;html=1;rounded=0;" parent="1" edge="1">
          <mxGeometry width="50" height="50" relative="1" as="geometry">
            <mxPoint x="240" y="-580" as="sourcePoint" />
            <mxPoint x="300" y="-580" as="targetPoint" />
          </mxGeometry>
        </mxCell>
        <mxCell id="wFP3KYfhAiqptKN9aw-K-22" value="2&lt;span style=&quot;white-space: pre;&quot;&gt;&#x9;&lt;/span&gt;3&lt;span style=&quot;white-space: pre;&quot;&gt;&#x9;&lt;/span&gt;8&lt;span style=&quot;white-space: pre;&quot;&gt;&#x9;&lt;/span&gt;9&lt;span style=&quot;white-space: pre;&quot;&gt;&#x9;&lt;/span&gt;10" style="text;html=1;align=center;verticalAlign=middle;whiteSpace=wrap;rounded=0;" parent="1" vertex="1">
          <mxGeometry x="230" y="-600" width="300" height="30" as="geometry" />
        </mxCell>
        <mxCell id="wFP3KYfhAiqptKN9aw-K-26" value="" style="group" parent="1" vertex="1" connectable="0">
          <mxGeometry x="1240" y="-370.5" width="11.89" height="291" as="geometry" />
        </mxCell>
        <mxCell id="wFP3KYfhAiqptKN9aw-K-27" value="" style="rounded=0;whiteSpace=wrap;html=1;" parent="wFP3KYfhAiqptKN9aw-K-26" vertex="1">
          <mxGeometry width="10" height="290" as="geometry" />
        </mxCell>
        <mxCell id="wFP3KYfhAiqptKN9aw-K-32" value="" style="triangle;whiteSpace=wrap;html=1;direction=north;" parent="wFP3KYfhAiqptKN9aw-K-26" vertex="1">
          <mxGeometry y="280.5" width="10" height="10" as="geometry" />
        </mxCell>
        <mxCell id="wFP3KYfhAiqptKN9aw-K-33" value="" style="group" parent="1" vertex="1" connectable="0">
          <mxGeometry x="1089" y="-369.15" width="11.89" height="291" as="geometry" />
        </mxCell>
        <mxCell id="wFP3KYfhAiqptKN9aw-K-34" value="" style="rounded=0;whiteSpace=wrap;html=1;" parent="wFP3KYfhAiqptKN9aw-K-33" vertex="1">
          <mxGeometry width="10" height="290" as="geometry" />
        </mxCell>
        <mxCell id="wFP3KYfhAiqptKN9aw-K-35" value="" style="triangle;whiteSpace=wrap;html=1;direction=north;" parent="wFP3KYfhAiqptKN9aw-K-33" vertex="1">
          <mxGeometry y="280.5" width="10" height="10" as="geometry" />
        </mxCell>
        <mxCell id="wFP3KYfhAiqptKN9aw-K-36" value="" style="group" parent="1" vertex="1" connectable="0">
          <mxGeometry x="938.11" y="-370.5" width="11.89" height="291" as="geometry" />
        </mxCell>
        <mxCell id="wFP3KYfhAiqptKN9aw-K-37" value="" style="rounded=0;whiteSpace=wrap;html=1;" parent="wFP3KYfhAiqptKN9aw-K-36" vertex="1">
          <mxGeometry width="10" height="290" as="geometry" />
        </mxCell>
        <mxCell id="wFP3KYfhAiqptKN9aw-K-38" value="" style="triangle;whiteSpace=wrap;html=1;direction=north;" parent="wFP3KYfhAiqptKN9aw-K-36" vertex="1">
          <mxGeometry y="280.5" width="10" height="10" as="geometry" />
        </mxCell>
        <mxCell id="wFP3KYfhAiqptKN9aw-K-46" value="" style="endArrow=none;html=1;rounded=0;entryX=0.004;entryY=0.138;entryDx=0;entryDy=0;entryPerimeter=0;" parent="1" target="3K-KdEBF6QyR_X1sGFoG-116" edge="1">
          <mxGeometry width="50" height="50" relative="1" as="geometry">
            <mxPoint x="441" y="440" as="sourcePoint" />
            <mxPoint x="559.5" y="420" as="targetPoint" />
            <Array as="points">
              <mxPoint x="510" y="439" />
            </Array>
          </mxGeometry>
        </mxCell>
        <mxCell id="3K-KdEBF6QyR_X1sGFoG-86" value="" style="endArrow=none;html=1;rounded=0;" parent="1" edge="1">
          <mxGeometry width="50" height="50" relative="1" as="geometry">
            <mxPoint x="440" y="360" as="sourcePoint" />
            <mxPoint x="520" y="360" as="targetPoint" />
          </mxGeometry>
        </mxCell>
        <mxCell id="3Ac_rtxtJaDLWxCdkaYt-1" value="" style="endArrow=classic;html=1;rounded=0;exitX=1.011;exitY=0.173;exitDx=0;exitDy=0;exitPerimeter=0;" edge="1" parent="1" source="3K-KdEBF6QyR_X1sGFoG-297">
          <mxGeometry width="50" height="50" relative="1" as="geometry">
            <mxPoint x="1450" y="-270" as="sourcePoint" />
            <mxPoint x="1420" y="-361" as="targetPoint" />
          </mxGeometry>
        </mxCell>
      </root>
    </mxGraphModel>
  </diagram>
</mxfile>
